<?xml version="1.0" standalone="no"?>
<!DOCTYPE svg PUBLIC "-//W3C//DTD SVG 20010904//EN"
 "http://www.w3.org/TR/2001/REC-SVG-20010904/DTD/svg10.dtd">
<svg version="1.0" xmlns="http://www.w3.org/2000/svg"
 width="1056.000000pt" height="992.000000pt" viewBox="0 0 1056.000000 992.000000"
 preserveAspectRatio="xMidYMid meet">
<metadata>
Created by potrace 1.16, written by Peter Selinger 2001-2019
</metadata>
<g transform="translate(0.000000,992.000000) scale(0.100000,-0.100000)"
fill="#000000" stroke="none">
<path d="M5075 9744 c-22 -3 -129 -13 -239 -24 -109 -11 -202 -22 -206 -25 -4
-2 -54 -12 -110 -20 -56 -8 -106 -18 -111 -21 -5 -3 -37 -10 -71 -15 -35 -5
-85 -16 -113 -24 -27 -8 -106 -30 -175 -49 -142 -40 -211 -62 -257 -82 -17 -8
-34 -14 -38 -14 -13 0 -237 -91 -333 -136 -121 -56 -256 -125 -345 -175 -38
-22 -71 -39 -73 -39 -2 0 -35 -20 -74 -45 -39 -25 -75 -45 -80 -45 -6 0 -10
-4 -10 -9 0 -5 -9 -13 -20 -16 -11 -3 -26 -12 -32 -18 -7 -7 -49 -36 -93 -66
-92 -63 -258 -185 -295 -217 -14 -12 -68 -57 -120 -100 -88 -72 -347 -324
-466 -454 -99 -107 -404 -506 -404 -527 0 -4 -18 -33 -40 -64 -22 -32 -40 -62
-40 -67 0 -6 -4 -12 -8 -14 -11 -4 -109 -174 -161 -278 -23 -47 -46 -92 -51
-100 -38 -71 -147 -321 -193 -445 -76 -205 -91 -254 -141 -440 -48 -182 -66
-267 -91 -435 -9 -58 -22 -145 -31 -195 -26 -158 -39 -568 -27 -865 11 -265
22 -362 69 -625 46 -261 123 -541 225 -815 17 -47 38 -103 46 -125 8 -21 20
-51 27 -65 8 -14 22 -45 33 -70 69 -156 240 -482 286 -544 20 -29 57 -87 57
-92 0 -12 116 -181 178 -259 4 -5 34 -46 67 -90 118 -157 362 -434 466 -530
263 -240 370 -327 629 -507 75 -52 280 -176 390 -235 292 -159 565 -274 845
-358 50 -15 100 -30 111 -35 27 -11 282 -72 389 -94 538 -109 1152 -120 1710
-30 174 28 317 57 383 78 26 8 61 17 77 21 91 19 320 95 485 161 241 96 645
303 830 427 449 301 812 631 1132 1032 113 142 312 429 374 540 9 17 25 46 36
65 11 19 30 53 43 75 59 99 234 473 266 565 4 14 20 57 34 95 23 63 57 163
100 296 33 102 89 346 125 544 68 377 86 944 42 1345 -12 113 -29 232 -37 265
-8 33 -19 89 -24 125 -38 242 -86 422 -210 775 -68 192 -266 607 -364 762 -15
24 -27 45 -27 47 0 3 -14 27 -32 53 -17 26 -52 80 -77 118 -165 252 -400 535
-641 770 -391 383 -924 743 -1400 948 -185 79 -278 117 -289 117 -6 0 -25 6
-43 14 -255 107 -604 186 -1098 246 -93 12 -686 22 -765 14z m795 -148 c143
-15 403 -56 477 -75 21 -5 79 -20 128 -32 106 -26 239 -63 304 -85 63 -21 212
-74 236 -84 11 -4 49 -20 85 -35 36 -14 74 -30 85 -35 11 -4 108 -51 215 -103
208 -102 387 -206 565 -329 173 -120 177 -123 380 -290 139 -114 422 -397 530
-529 50 -61 98 -121 109 -132 26 -31 196 -266 196 -271 0 -3 20 -33 44 -68 98
-142 287 -488 359 -659 11 -24 27 -62 38 -84 17 -37 31 -73 95 -250 14 -38 32
-84 39 -100 7 -17 15 -46 19 -65 4 -19 16 -62 26 -95 29 -93 48 -166 55 -215
4 -25 13 -67 20 -95 78 -284 126 -944 96 -1305 -43 -526 -123 -897 -293 -1360
-59 -159 -89 -229 -172 -390 -43 -85 -90 -177 -104 -205 -41 -83 -111 -185
-125 -185 -8 0 -45 33 -83 73 -38 40 -130 137 -204 216 -74 79 -140 155 -147
169 -8 18 -12 88 -13 203 0 151 -2 178 -16 183 -8 3 -1460 6 -3225 6 l-3210 0
-9 -26 c-6 -14 -10 -113 -10 -220 l0 -195 -114 -117 c-250 -258 -311 -325
-311 -342 0 -19 47 -70 297 -326 l128 -131 0 -55 c0 -41 5 -59 18 -72 17 -15
249 -16 3217 -16 1759 0 3200 -2 3203 -4 11 -12 -50 -83 -178 -209 -199 -193
-303 -286 -440 -387 -18 -14 -38 -29 -44 -35 -93 -83 -419 -290 -641 -405
-190 -100 -231 -119 -385 -180 -58 -23 -121 -48 -140 -55 -89 -36 -217 -78
-335 -110 -55 -15 -120 -33 -145 -40 -144 -42 -409 -87 -650 -112 -255 -26
-687 -24 -953 5 -109 12 -202 24 -207 27 -4 2 -41 9 -81 15 -71 10 -141 24
-279 56 -36 9 -90 21 -120 29 -151 35 -455 137 -586 196 -22 11 -43 19 -47 19
-15 0 -317 146 -437 212 -119 65 -145 80 -161 94 -8 8 -19 14 -23 14 -4 0 -33
17 -64 39 -32 21 -88 59 -127 84 -286 186 -659 523 -887 802 -31 39 -67 81
-80 95 -36 40 -80 98 -143 190 -33 47 -83 119 -112 160 -114 162 -286 475
-385 700 -78 175 -149 362 -177 465 -5 17 -21 71 -36 120 -73 237 -111 416
-161 765 -21 153 -31 688 -15 900 12 170 44 427 60 487 6 21 15 72 21 113 6
41 18 98 25 125 8 28 26 97 40 155 14 58 32 121 40 140 7 19 21 62 31 95 40
138 192 504 277 665 162 309 394 664 532 816 5 6 21 24 34 40 198 236 415 449
656 641 183 146 170 137 335 247 190 126 268 171 475 276 250 126 318 155 600
259 110 41 315 100 440 126 261 55 366 72 565 90 91 8 183 17 205 19 89 9 639
-4 775 -18z m-2620 -6576 c60 -31 110 -113 110 -181 0 -36 -18 -49 -66 -49
-44 0 -54 10 -54 54 0 32 -35 73 -68 81 -66 14 -112 -37 -112 -124 0 -55 36
-94 130 -141 43 -21 92 -48 109 -61 84 -62 86 -303 3 -382 -35 -33 -110 -50
-188 -42 -49 5 -68 12 -96 38 -41 36 -63 76 -71 129 -8 53 9 70 63 66 45 -3
45 -3 53 -50 8 -39 14 -49 42 -62 46 -22 79 -20 110 7 23 19 28 33 32 87 7 96
-11 123 -117 178 -46 24 -99 54 -116 67 -47 36 -67 97 -63 193 4 70 8 85 35
124 59 83 176 113 264 68z m495 -6 c23 -11 52 -38 70 -64 l30 -45 0 -300 0
-300 -27 -45 c-44 -74 -111 -99 -223 -85 -82 10 -127 53 -149 140 -19 75 -23
465 -6 556 21 111 95 171 205 165 33 -1 78 -11 100 -22z m293 9 c18 -16 71
-150 105 -268 7 -22 15 -45 19 -51 4 -6 14 -36 22 -65 17 -67 48 -132 61 -130
6 0 10 93 11 251 0 158 5 255 11 261 6 6 28 9 49 7 l39 -3 3 -418 2 -417 -27
-11 c-38 -14 -69 2 -89 48 -9 21 -36 94 -59 163 -84 242 -108 300 -125 300 -6
0 -10 -96 -10 -250 0 -236 -1 -250 -19 -260 -29 -15 -78 -2 -85 24 -8 31 -7
799 2 812 18 27 63 30 90 7z m542 -183 c0 -110 4 -181 10 -185 17 -11 125 -14
140 -5 12 7 16 47 20 192 l5 183 38 3 c69 6 66 24 64 -424 -2 -274 -6 -407
-14 -415 -5 -5 -28 -9 -49 -7 l-39 3 -3 167 c-2 165 -3 168 -26 184 -19 12
-36 13 -83 7 l-58 -8 -3 -172 c-3 -191 -4 -196 -70 -186 -22 4 -34 12 -37 27
-3 11 -4 201 -3 421 l3 400 35 6 c69 11 70 9 70 -191z m685 181 c54 -25 95
-70 106 -117 13 -56 11 -533 -2 -595 -8 -38 -21 -61 -50 -89 -45 -44 -100 -56
-194 -45 -47 6 -62 13 -95 47 -65 66 -70 96 -70 389 0 234 2 261 20 301 26 59
51 85 102 107 55 25 132 26 183 2z m581 -52 c12 -30 42 -115 67 -189 120 -359
126 -359 125 -7 -1 223 0 241 17 253 22 17 40 18 66 4 18 -10 19 -26 19 -419
0 -449 2 -435 -61 -429 -33 3 -60 36 -80 98 -4 14 -17 50 -29 80 -11 30 -41
113 -65 184 -25 71 -50 133 -57 137 -10 7 -14 -43 -18 -244 l-5 -252 -50 0
-50 0 -3 417 -2 417 32 9 c50 13 69 1 94 -59z m704 48 c28 -14 56 -38 75 -67
l30 -45 3 -295 c3 -279 2 -297 -17 -335 -37 -75 -92 -105 -192 -105 -95 0
-152 37 -189 122 -20 47 -21 62 -18 321 3 256 4 274 25 312 11 22 32 50 45 62
59 56 160 68 238 30z m478 5 c43 -19 85 -63 101 -105 13 -33 17 -99 7 -115
-10 -16 -96 -16 -100 1 -2 6 -9 31 -15 55 -33 118 -171 81 -171 -47 0 -70 26
-99 133 -154 123 -63 146 -87 157 -166 12 -87 2 -192 -24 -237 -34 -60 -76
-79 -177 -79 -78 0 -89 2 -122 28 -41 31 -71 82 -81 140 -9 49 5 67 53 67 44
0 61 -14 61 -51 0 -41 44 -79 92 -79 52 0 84 32 93 94 15 97 -9 140 -107 187
-107 53 -117 59 -141 92 -14 18 -29 47 -36 66 -14 43 -14 134 0 186 29 107
168 166 277 117z m481 -2 c70 -35 111 -105 111 -188 0 -26 -5 -35 -26 -42 -31
-12 -72 -3 -83 19 -5 9 -11 33 -15 53 -5 28 -15 42 -36 53 -42 22 -66 19 -102
-14 -30 -27 -33 -34 -33 -89 0 -76 18 -97 130 -155 153 -80 171 -111 162 -275
-5 -92 -9 -108 -32 -138 -39 -51 -66 -64 -142 -71 -84 -7 -137 8 -174 48 -35
36 -61 107 -57 150 3 34 3 34 53 34 l50 0 6 -39 c13 -80 107 -116 159 -61 20
21 25 39 28 93 4 92 -12 115 -120 170 -109 54 -132 75 -157 140 -36 92 -22
209 33 270 52 59 173 79 245 42z m491 -3 c26 -13 56 -40 75 -65 l30 -44 3
-284 c3 -315 -1 -349 -52 -400 -65 -65 -212 -72 -286 -14 -70 55 -75 84 -75
405 l0 280 25 40 c13 22 31 47 40 57 46 49 164 62 240 25z m1184 -670 c-70
-106 -307 -415 -322 -422 -8 -3 -18 -3 -23 1 -14 8 -11 81 5 117 20 44 376
406 383 389 3 -7 -16 -46 -43 -85z"/>
<path d="M5420 8954 c-14 -2 -74 -11 -135 -20 -60 -9 -144 -25 -185 -36 -41
-11 -92 -24 -112 -29 -20 -5 -52 -15 -70 -23 -18 -8 -73 -31 -123 -51 -146
-60 -241 -111 -390 -210 -183 -121 -341 -261 -476 -420 -19 -22 -36 -42 -39
-45 -19 -17 -136 -191 -185 -275 -102 -174 -166 -324 -223 -525 l-8 -25 -164
3 c-258 5 -485 -26 -735 -103 -124 -38 -164 -54 -320 -132 -162 -80 -203 -106
-335 -208 -102 -79 -183 -163 -241 -252 -84 -129 -97 -150 -104 -175 -4 -13
-12 -29 -18 -36 -33 -42 -123 -302 -159 -462 -24 -108 -58 -408 -58 -514 0
-106 26 -339 44 -396 8 -25 18 -61 21 -80 22 -110 100 -290 178 -412 181 -283
544 -554 892 -667 102 -33 266 -70 360 -81 190 -21 462 -8 598 30 68 19 97 18
97 -4 1 -6 1 -78 0 -161 0 -82 4 -156 9 -164 6 -10 40 -14 130 -15 66 -1 126
1 133 5 14 9 12 638 -3 653 -5 6 -71 9 -147 9 -105 -1 -158 -7 -222 -23 -92
-23 -299 -49 -397 -50 -135 0 -347 38 -508 92 -97 32 -278 125 -367 188 -163
116 -320 290 -397 440 -48 93 -104 274 -121 390 -63 428 43 930 263 1248 49
71 200 232 217 232 5 0 15 6 22 13 34 34 210 130 358 195 190 84 518 152 726
152 94 0 274 -23 363 -46 36 -9 67 -12 72 -7 5 5 13 44 19 88 24 178 70 331
151 502 48 101 148 274 169 293 3 3 23 29 44 59 119 168 371 402 551 512 144
87 347 179 475 214 185 51 286 67 465 72 323 9 543 -37 800 -169 100 -52 128
-71 244 -169 200 -169 356 -406 436 -659 55 -174 76 -386 63 -643 -5 -104 -4
-145 5 -153 9 -8 34 -9 87 -2 141 17 404 -13 555 -64 69 -23 181 -66 204 -78
9 -5 43 -22 76 -38 123 -60 249 -151 383 -277 184 -172 317 -422 391 -735 53
-221 55 -617 4 -775 -33 -104 -67 -201 -80 -225 -7 -14 -13 -29 -13 -35 0 -13
-105 -179 -145 -231 -64 -83 -224 -233 -310 -290 -199 -133 -388 -197 -658
-223 -49 -5 -92 -12 -97 -17 -13 -13 -15 -423 -2 -436 5 -5 58 -11 117 -12
131 -3 135 0 135 93 0 49 4 72 15 81 9 7 53 19 100 26 116 19 352 113 470 188
89 57 116 75 178 125 192 150 371 376 471 592 59 128 66 147 66 164 0 9 5 25
11 37 18 34 56 207 68 310 27 239 2 546 -64 768 -7 25 -16 61 -20 80 -28 144
-182 450 -298 590 -156 188 -225 245 -523 437 -25 16 -168 87 -219 108 -136
57 -355 112 -505 126 -63 6 -119 15 -124 19 -5 5 -10 37 -12 72 -6 99 -34 285
-56 373 -18 71 -34 122 -84 260 -57 154 -203 376 -351 531 -78 83 -197 180
-303 248 -185 120 -489 225 -735 255 -83 10 -338 13 -395 5z"/>
<path d="M5890 7104 c-63 -35 -122 -69 -130 -74 -23 -15 -191 -110 -194 -110
-2 0 -41 -22 -87 -50 -46 -27 -89 -50 -95 -50 -6 0 -19 -9 -28 -19 -17 -19
-17 -20 6 -34 60 -37 168 -97 217 -121 30 -15 114 -60 186 -101 73 -41 135
-75 139 -75 3 0 29 -14 57 -31 31 -20 54 -28 60 -22 13 13 7 745 -6 749 -5 2
-62 -26 -125 -62z"/>
<path d="M4605 6973 c-6 -136 -2 -510 5 -560 1 -10 50 0 60 12 6 8 21 17 32
20 10 4 49 24 86 44 124 70 297 165 357 196 82 43 140 82 143 97 2 10 -17 27
-55 48 -32 18 -65 38 -73 45 -8 7 -46 30 -85 50 -85 44 -177 96 -196 111 -8 6
-52 30 -99 54 -47 24 -94 49 -105 57 -11 7 -29 13 -41 13 -21 0 -22 -4 -29
-187z"/>
<path d="M5245 6533 c-103 -53 -104 -196 -2 -253 79 -45 184 -2 206 84 31 123
-94 226 -204 169z"/>
<path d="M4273 6349 c-75 -73 -82 -83 -71 -102 6 -12 81 -94 167 -182 401
-410 544 -558 637 -655 238 -249 308 -320 319 -320 13 0 71 59 760 773 303
315 343 358 363 386 16 24 15 25 -67 102 -46 44 -91 79 -101 79 -10 0 -57 -41
-106 -91 -49 -51 -152 -156 -229 -234 -77 -78 -243 -249 -369 -379 -127 -131
-236 -236 -246 -236 -17 0 -263 243 -742 733 -112 114 -210 207 -218 207 -8 0
-52 -37 -97 -81z"/>
<path d="M6465 6054 c-259 -231 -367 -342 -392 -401 -7 -18 -13 -66 -13 -107
0 -69 -2 -78 -28 -103 -36 -36 -176 -167 -333 -313 -68 -63 -166 -155 -217
-205 -51 -49 -103 -91 -114 -93 -13 -3 -42 18 -92 65 -225 213 -391 370 -612
578 -82 77 -191 181 -243 230 -52 50 -102 97 -111 105 -9 8 -64 61 -122 118
-80 77 -112 102 -132 102 -14 0 -26 -4 -26 -10 0 -55 324 -542 509 -765 96
-116 225 -249 276 -284 50 -35 126 -61 177 -61 29 0 44 -6 61 -27 12 -14 45
-51 72 -81 79 -87 85 -94 85 -110 0 -8 -73 -85 -162 -171 -159 -154 -188 -192
-188 -250 0 -43 9 -60 41 -76 78 -41 148 7 375 258 38 40 70 67 82 67 13 0 44
-26 81 -68 86 -97 243 -233 299 -259 66 -31 141 -31 170 0 12 13 22 34 22 47
0 25 -22 48 -282 295 -82 77 -148 145 -148 150 0 11 32 48 189 215 59 63 176
192 260 285 83 94 163 178 176 188 17 12 53 21 108 27 45 4 93 12 107 18 30
13 95 76 250 242 195 209 205 220 184 220 -8 0 -91 -71 -165 -141 -130 -124
-149 -138 -149 -106 0 12 107 135 183 209 20 20 37 41 37 47 0 6 5 11 10 11 6
0 10 8 10 18 -1 16 -1 16 -11 0 -5 -10 -14 -18 -19 -18 -5 0 -33 -22 -62 -50
-29 -27 -84 -79 -122 -115 -62 -57 -96 -78 -96 -59 0 9 83 106 145 170 73 75
115 125 115 136 0 17 -15 5 -126 -98 -161 -150 -166 -154 -175 -154 -21 0 -5
29 42 80 120 130 184 202 187 210 7 18 -13 10 -44 -17 -17 -16 -68 -62 -114
-103 -46 -41 -91 -83 -99 -92 -15 -18 -41 -25 -41 -11 0 12 48 69 122 146 96
99 118 125 118 137 0 17 -14 11 -55 -26z"/>
<path d="M5232 6009 c-97 -64 -78 -212 32 -254 52 -20 96 -10 146 31 60 51 60
152 -1 210 -40 39 -128 45 -177 13z"/>
<path d="M4062 3987 c-9 -11 -12 -77 -10 -262 3 -223 5 -249 21 -259 12 -8 22
-8 35 0 13 9 18 28 20 90 3 98 8 124 27 124 17 0 38 -38 55 -100 21 -78 47
-120 76 -120 35 0 38 19 14 91 -53 156 -52 145 -23 180 21 24 28 45 31 89 9
123 -33 171 -157 178 -60 3 -79 1 -89 -11z"/>
<path d="M4378 3989 c-16 -9 -18 -32 -18 -259 0 -292 -11 -270 129 -270 83 0
91 2 102 22 17 32 -19 58 -80 58 -26 0 -52 5 -59 12 -16 16 -16 113 1 126 7 6
35 12 62 14 48 3 50 4 50 33 0 29 -2 30 -50 33 -60 3 -75 19 -75 80 0 68 12
82 70 82 26 0 55 3 64 6 19 7 21 45 4 62 -15 15 -175 16 -200 1z"/>
<path d="M4688 3985 c-14 -8 -35 -34 -47 -58 -42 -87 -18 -156 72 -206 80 -46
97 -65 97 -111 0 -39 -26 -80 -51 -80 -23 0 -47 21 -58 50 -9 26 -15 31 -38
28 -21 -2 -29 -9 -31 -26 -9 -64 52 -125 123 -125 79 0 135 64 135 153 0 68
-22 105 -82 139 -81 45 -96 58 -103 91 -14 61 49 106 87 63 9 -10 18 -27 20
-38 2 -15 11 -20 33 -20 26 0 30 4 33 29 11 92 -102 158 -190 111z"/>
<path d="M4917 3994 c-4 -4 -7 -20 -7 -35 0 -23 5 -30 28 -35 15 -3 33 -7 39
-9 9 -3 13 -61 15 -227 l3 -223 35 0 35 0 5 225 c3 124 7 226 8 227 1 1 19 3
40 5 35 3 37 5 37 38 l0 35 -116 3 c-63 1 -118 -1 -122 -4z"/>
<path d="M5253 3988 c-13 -17 -52 -179 -105 -439 -13 -67 -7 -92 24 -87 23 3
43 34 52 79 4 17 16 31 36 39 43 18 76 -5 85 -59 4 -22 13 -45 20 -51 20 -16
56 -8 69 15 6 11 12 22 13 24 1 2 23 -11 49 -28 54 -35 68 -37 122 -16 65 26
71 51 72 296 1 173 -1 215 -13 226 -19 20 -53 8 -61 -20 -3 -12 -6 -109 -6
-214 l0 -193 -25 -16 c-24 -16 -27 -16 -45 1 -19 17 -20 32 -20 225 0 226 -3
239 -55 226 l-25 -6 0 -230 c0 -137 -4 -230 -9 -230 -6 0 -13 21 -17 48 -3 26
-12 61 -20 79 -7 18 -16 54 -19 80 -4 26 -15 77 -25 113 -10 36 -21 82 -24
103 -4 22 -13 37 -21 37 -7 0 -20 2 -28 5 -7 3 -18 0 -24 -7z"/>
<path d="M5753 3993 c-10 -3 -13 -64 -13 -257 0 -251 3 -276 35 -276 32 1 40
21 45 117 5 92 6 98 27 101 20 3 25 -6 49 -87 35 -116 49 -131 118 -131 59 0
70 8 81 58 9 42 30 62 64 62 35 0 46 -12 60 -67 13 -48 43 -65 69 -40 16 17
12 51 -28 222 -10 44 -26 114 -35 155 -33 151 -33 150 -65 150 -18 0 -33 -7
-39 -18 -6 -10 -24 -90 -41 -178 -37 -188 -60 -274 -72 -274 -11 0 -33 51 -50
114 -11 41 -10 49 10 85 17 30 22 55 22 114 0 66 -3 79 -26 106 -14 17 -42 35
-62 41 -38 10 -127 12 -149 3z"/>
<path d="M6336 3992 c-3 -5 -4 -122 -2 -258 3 -248 3 -249 26 -261 41 -21 50
-8 50 77 0 107 10 170 26 170 8 0 14 -7 14 -16 0 -9 9 -35 19 -58 11 -23 29
-69 41 -104 13 -34 31 -67 42 -73 22 -12 58 -3 59 14 0 12 0 469 -1 494 0 18
-48 27 -65 13 -12 -10 -15 -38 -15 -129 0 -125 -11 -167 -30 -116 -87 237 -94
250 -128 253 -16 2 -33 -1 -36 -6z"/>
<path d="M6654 3986 c-11 -29 1 -51 34 -62 19 -6 38 -17 43 -25 5 -8 9 -105 9
-215 0 -215 4 -234 49 -219 31 9 34 37 27 239 -6 196 -3 212 43 218 32 4 50
32 35 56 -9 14 -29 17 -123 20 -91 2 -112 0 -117 -12z"/>
<path d="M6956 3987 c-17 -13 -19 -32 -17 -258 2 -214 4 -246 18 -256 22 -17
185 -17 201 -1 16 16 15 45 0 55 -7 4 -40 10 -73 13 l-60 5 -3 58 c-4 72 7 87
63 87 85 0 86 60 2 70 -26 3 -52 11 -57 16 -6 6 -10 39 -8 75 l3 64 60 5 c33
3 66 9 73 13 15 10 16 39 0 55 -17 17 -179 16 -202 -1z"/>
<path d="M4794 1668 c-6 -7 -20 -49 -33 -93 -12 -44 -29 -86 -38 -92 -10 -8
-48 -13 -95 -13 -68 0 -78 -2 -78 -17 0 -10 19 -31 43 -47 23 -16 53 -42 66
-58 l23 -29 -22 -77 c-34 -124 -34 -122 -17 -122 9 0 44 25 78 55 34 30 67 55
74 55 7 0 43 -25 80 -55 95 -78 104 -75 74 30 -38 132 -39 130 56 197 72 50
72 68 -2 70 -32 1 -73 2 -90 3 -18 0 -37 5 -41 10 -5 6 -20 48 -32 95 -26 95
-33 107 -46 88z"/>
<path d="M6232 1603 c-12 -37 -24 -78 -27 -91 -9 -31 -42 -42 -126 -42 -59 0
-69 -2 -69 -17 0 -10 27 -37 60 -61 35 -25 63 -54 66 -68 4 -14 -5 -58 -20
-106 -36 -109 -25 -116 62 -45 38 32 76 57 84 57 8 0 39 -22 69 -49 29 -26 65
-51 78 -56 22 -7 23 -5 18 21 -3 16 -13 54 -22 84 -32 103 -32 103 20 141 89
66 99 75 92 93 -6 14 -16 16 -64 11 -108 -11 -130 7 -162 129 -9 33 -21 61
-27 63 -6 2 -20 -26 -32 -64z"/>
<path d="M4006 1638 c-8 -13 -18 -44 -21 -71 -4 -26 -16 -58 -27 -72 -18 -23
-26 -25 -104 -25 -95 0 -108 -12 -51 -51 46 -32 107 -91 107 -105 0 -6 -11
-47 -25 -90 -28 -88 -30 -104 -14 -104 10 0 87 59 127 97 23 22 42 15 105 -42
95 -86 103 -75 59 79 l-21 70 47 43 c25 24 49 43 54 43 9 0 48 41 48 52 0 4
-29 8 -64 8 -122 0 -144 16 -161 116 -11 62 -16 74 -30 74 -8 0 -21 -10 -29
-22z"/>
<path d="M5505 1623 c-12 -69 -36 -133 -55 -143 -10 -6 -50 -10 -89 -10 -63 0
-71 -2 -71 -19 0 -11 14 -28 33 -39 17 -12 45 -34 61 -51 26 -27 28 -35 23
-76 -4 -25 -13 -59 -22 -75 -18 -35 -20 -90 -2 -90 6 0 39 25 72 55 33 30 68
55 77 55 9 0 38 -19 63 -42 45 -42 82 -67 98 -68 12 0 8 31 -18 120 l-25 85
34 30 c18 17 50 44 70 61 20 17 36 36 36 41 0 6 -37 12 -85 15 -47 2 -90 9
-96 15 -6 6 -21 46 -33 90 -18 64 -25 79 -43 81 -18 3 -23 -3 -28 -35z"/>
<path d="M6977 1643 c-3 -10 -8 -36 -12 -58 -4 -21 -15 -56 -26 -77 l-19 -38
-85 0 c-78 0 -85 -2 -85 -20 0 -11 12 -26 28 -34 15 -8 44 -31 66 -51 34 -32
38 -40 33 -70 -3 -19 -12 -49 -20 -67 -22 -49 -27 -80 -16 -95 9 -9 26 0 80
43 78 62 84 62 143 9 51 -47 83 -68 95 -61 10 7 0 60 -17 92 -6 11 -14 43 -17
70 -7 46 -5 51 20 69 15 11 39 30 53 42 15 13 30 23 33 23 3 0 11 11 17 25
l12 25 -79 0 c-98 0 -116 12 -137 95 -9 33 -20 68 -25 77 -12 23 -36 23 -42 1z"/>
<path d="M3598 2923 c-9 -2 -25 -16 -35 -31 -16 -24 -18 -54 -21 -267 -4 -275
1 -307 52 -332 41 -19 95 -11 122 18 16 18 19 44 22 262 5 275 -1 318 -48 342
-28 15 -58 17 -92 8z"/>
<path d="M5122 2923 c-7 -3 -21 -22 -32 -44 -18 -35 -20 -59 -20 -280 0 -208
2 -245 17 -270 36 -61 128 -64 163 -6 18 29 20 52 20 280 0 263 -5 293 -49
317 -20 10 -76 12 -99 3z"/>
<path d="M6385 2905 c-27 -30 -30 -56 -34 -268 -3 -189 7 -302 28 -329 11 -13
33 -22 62 -25 38 -4 50 -1 75 20 l29 25 0 239 c0 276 -5 320 -35 345 -34 27
-96 24 -125 -7z"/>
<path d="M7848 2913 c-15 -10 -32 -31 -38 -47 -13 -38 -13 -470 1 -518 11 -42
48 -68 97 -68 46 0 73 29 82 86 11 68 12 272 4 406 -6 102 -9 114 -32 135 -30
27 -75 30 -114 6z"/>
</g>
</svg>
