<svg version="1.1" id="Layer_1" xmlns="http://www.w3.org/2000/svg" xmlns:xlink="http://www.w3.org/1999/xlink" x="0px" y="0px" viewBox="0 0 2634.3 1740.1" style="enable-background:new 0 0 2634.3 1740.1;" xml:space="preserve">
 <style type="text/css">
  .st0{fill:#007F61;}
	.st1{fill:#FFFFFF;}
	.st2{fill:#BDD654;}
 </style>
 <g>
  <g>
   <path class="st0" d="M1763.6,1732.1c-89.7,0-178.3-13.9-263.4-41.3c-88-28.3-170.7-70.7-245.9-125.8c-4.3-3.1-17-11.5-30.5-20.4
			c-15.8-10.4-33.8-22.2-44-29.5c-59.5-42-111.1-59.9-172.4-59.9c-42.3,0-90.3,8.5-151,26.6c-65.8,21.9-134.2,33-203.6,33
			c-77.8,0-154.3-13.9-227.1-41.3c-81.4-30.7-154.4-76.3-216.9-135.8c-60.4-57.4-108.5-125.2-143.1-201.4
			C31.1,1060,11.9,979.1,8.5,895.9c-3.5-86.2,10.3-171.2,41-252.6c47.1-125.1,130.2-230.8,240.4-305.7c53.1-36.1,111-64,172.3-83
			c61.9-19.2,126-28.9,190.5-28.9c77.5,0,153.8,14,227,41.5c9.1,3.5,38.1,13.4,43.8,14.9c30.1,7.5,56.7,11.2,81.2,11.2
			c63.3,0,123-24.6,199.6-82.1c4.5-3.5,70.7-50.7,79.8-56.9c70.6-47.5,147.5-84.1,228.8-108.8C1594.3,20.6,1678.5,8,1763.5,8h0.7
			c91.3,0,181.6,14.4,268.3,42.8c86.8,28.4,168.1,70.2,241.7,124.2c93.8,68.8,171.3,154,230.4,253.1c57.1,95.7,94.6,200.4,111.6,311
			c17,110.7,12.6,221.8-13.2,330.2c-26.6,112.3-75,216.8-143.9,310.6c-41.4,56.5-89.4,107.6-142.7,152.1
			c-51.7,43.2-108.6,80.3-169.1,110.2c-59.4,29.4-122.4,52-187.1,67.1C1895.9,1724.5,1829.7,1732.1,1763.6,1732.1
			C1763.6,1732.1,1763.6,1732.1,1763.6,1732.1z">
   </path>
   <path class="st1" d="M1763.5,16c0.1,0,0.3,0,0.4,0c0.1,0,0.2,0,0.3,0c181.7,0,358.7,58,505.3,165.5
			c380.3,279,462.3,813.5,183.3,1193.8c-167.3,228-426.5,348.8-689.2,348.8c-175.4,0-352.3-53.8-504.6-165.5
			c-9.5-7-55.6-36.5-74.7-49.9c-57.7-40.7-110.7-61.4-177-61.4c-43.6,0-93.1,8.9-153.4,27c-65.3,21.8-133.3,32.6-201.1,32.6
			c-76.1,0-152.1-13.6-224.3-40.8C99.4,1342.1-66.9,975,57,646c96.1-255.1,338.4-412.4,595.8-412.4c74.5,0,150.3,13.2,224.2,41
			c9.2,3.5,38.4,13.6,44.7,15.2c29.5,7.4,56.7,11.5,83.2,11.5c65,0,125.5-24.5,204.4-83.8c2.9-2.3,69.8-50.1,79.4-56.7
			C1429.1,66.4,1594.4,16,1763.5,16 M1764.2,0h-0.3h-0.4c-85.8,0-170.8,12.7-252.8,37.7c-82,25-159.7,62-230.9,109.8l-0.1,0l0,0
			c-9,6.2-73.9,52.5-80,57.1l0,0c-38.6,29-72.6,49.3-103.9,62.1c-30.8,12.6-59.7,18.5-91,18.5c-23.9,0-49.8-3.6-79.3-11v0
			c-5-1.3-33.5-11-42.9-14.6l-0.1,0l-0.1,0c-74-27.9-151.4-42-229.8-42c-65.3,0-130.3,9.8-192.9,29.3
			c-62.1,19.2-120.8,47.5-174.5,84c-54.4,37-102.7,81.8-143.5,133.1C99.7,517,66.1,576.4,42,640.4C11,722.8-3,808.9,0.5,896.2
			c1.7,41.9,7.5,84,17.2,124.9c9.7,40.6,23.3,80.4,40.5,118.4c17.2,38,38.2,74.6,62.3,108.6c24.3,34.3,52.1,66.4,82.5,95.4
			c63.3,60.2,137.2,106.5,219.6,137.5c73.8,27.8,151.1,41.9,229.9,41.9c70.1,0,139.4-11.2,206-33.4c59.9-17.9,107.2-26.2,148.6-26.2
			c59.6,0,109.7,17.5,167.8,58.5c10.4,7.3,28.4,19.2,44.2,29.6c13.4,8.8,26.1,17.2,30.2,20.2c75.9,55.7,159.4,98.4,248.1,127
			c85.9,27.6,175.3,41.7,265.9,41.7c66.7,0,133.6-7.7,198.6-22.9c65.4-15.2,128.9-38,188.9-67.7c61-30.2,118.5-67.7,170.7-111.3
			c53.7-44.9,102.2-96.5,144-153.5c34.9-47.6,65-98.7,89.5-151.8c23.8-51.8,42.6-106.2,55.8-161.7c12.9-54.5,20.6-110.5,22.8-166.6
			c2.2-55.6-1-111.6-9.5-166.6c-8.4-55-22.2-109.5-41-161.8c-18.9-52.9-43-104-71.7-152.1c-29.2-49-63.4-95.2-101.7-137.5
			c-39.3-43.4-83.3-83.1-130.9-118c-74.3-54.5-156.3-96.7-243.9-125.4C1947.5,14.5,1856.4,0,1764.2,0L1764.2,0z">
   </path>
  </g>
  <g>
   <path class="st1" d="M1455.8,1002.1c-50.1,49.3-127.5,57.5-186.8,19.8l-56.7,90c101.1,63.9,232.8,49.9,318.3-33.8L1455.8,1002.1z
			 M1353.7,635.6c-142.5-2.3-259.8,111.4-262.1,253.9c-0.8,51.4,13.7,101.8,41.8,144.9l467.3-199.8
			C1573.7,719.6,1471.9,637.6,1353.7,635.6L1353.7,635.6z M1198.9,909.6c-9.1-83.3,51-158.1,134.3-167.2
			c50.3-5.5,100,14.4,132.6,53.2L1198.9,909.6z M1747.5,519.5v498.1l86.4,35.9l-40.8,97.9l-85.7-35.5c-17.3-7.4-31.9-19.7-42.1-35.5
			c-11.4-18.3-17.1-39.6-16.5-61.2V519.5H1747.5z M995,519.5v498.1l85.7,35.9l-40.8,97.9l-85.7-35.5c-16.7-7.4-30.8-19.6-40.8-34.9
			c-11.4-18.3-17.2-39.6-16.6-61.2V519.5H995z">
   </path>
  </g>
  <path class="st2" d="M2172.7,756.7c75.5,36.4,107.2,127.1,70.8,202.6c0,0,0,0,0,0.1l95.6,45.9c61.6-128.5,7.4-282.6-121.1-344.2
		c-94.7-45.4-207.5-28.9-285.2,41.8l71.5,78.5C2050.1,739.4,2116.9,729.6,2172.7,756.7L2172.7,756.7z">
  </path>
  <path class="st1" d="M2041.2,1030.5c-75.6-36.4-107.4-127.1-71.1-202.7l-95.6-46c-61.2,128.7-6.4,282.6,122.3,343.8
		c94.2,44.8,206,28.5,283.5-41.4l-71.5-78.3C2163.1,1047.4,2096.8,1057.1,2041.2,1030.5z M799.1,1037.7V893.5
		c0-142-115.1-257.1-257.1-257.1S285,751.6,285,893.5s115.1,257.1,257.1,257.1c39.9,0,79.2-9.3,114.8-27.1l-41.4-96.7
		c-73.5,40.6-166,14-206.6-59.5c-12.5-22.6-19-48-19-73.8c-0.1-24.9,5.9-49.4,17.5-71.4c20.7-38.8,57.2-66.8,100-76.7
		c11.2-2.7,22.7-4,34.3-4c84.1-0.1,152.4,68,152.5,152.1v143c-0.6,21.6,5.1,42.9,16.5,61.2c10.3,15.7,24.9,28,42.1,35.5l48.2,19.1
		l40.9-97.9L799.1,1037.7z">
  </path>
 </g>
</svg>