<svg width="86" height="28" viewBox="0 0 86 28" fill="none" xmlns="http://www.w3.org/2000/svg"><path d="M0 11.5898H6.35272C7.49199 5.54435 12.7493 0.68103 19.4522 0.68103C27.0748 0.68103 32.42 6.11398 32.42 14.3062C32.42 15.1821 32.3322 15.8835 32.2444 16.497H11.7407C12.7044 20.221 15.771 22.4118 19.4511 22.4118C22.6055 22.4118 24.9708 21.1847 26.8553 19.0389L30.6233 22.4996C28.1263 25.3467 24.4023 27.319 19.4511 27.319C12.7483 27.319 7.49092 22.5435 6.35165 16.4981H0V11.5898ZM26.987 11.5898C26.7236 10.0565 26.0234 8.65486 25.0158 7.64729C23.702 6.33242 21.7736 5.50045 19.4522 5.50045C17.1308 5.50045 15.2463 6.28959 13.8447 7.69119C12.881 8.65486 12.0919 9.96973 11.6979 11.5908H26.987V11.5898ZM36.2308 0.856632H41.7504V21.886H51.7394V27.1434H41.8382C38.202 27.1434 36.2308 25.1722 36.2308 21.5359V0.856632ZM52.792 14C52.792 6.85922 58.6189 0.6821 66.3294 0.6821C73.1639 0.6821 78.508 5.50152 79.6473 11.5908H86V16.4981H79.6473C78.4641 22.5435 73.1189 27.319 66.3294 27.319C58.575 27.3179 52.792 21.1847 52.792 14ZM66.3294 22.1484C70.9293 22.1484 74.346 18.6438 74.346 14.0439C74.346 9.4879 70.8415 5.85058 66.3294 5.85058C61.7294 5.85058 58.3116 9.35513 58.3116 13.9989C58.3116 18.5121 61.8172 22.1484 66.3294 22.1484Z" fill="#003933"/></svg>