<svg version="1.1" id="svg6217" xmlns:x="ns_extend;" xmlns:i="ns_ai;" xmlns:graph="ns_graphs;" xmlns:svg="http://www.w3.org/2000/svg" xmlns="http://www.w3.org/2000/svg" xmlns:xlink="http://www.w3.org/1999/xlink" x="0px" y="0px" viewBox="0 0 198.2 64" style="enable-background:new 0 0 198.2 64;" xml:space="preserve">
 <style type="text/css">
  .st0{fill:#283897;}
	.st1{fill:#EE0000;}
 </style>
 <metadata>
  <sfw xmlns="ns_sfw;">
   <slices>
   </slices>
   <sliceSourceBounds bottomLeftOrigin="true" height="64" width="198.2" x="412.9" y="140">
   </sliceSourceBounds>
  </sfw>
 </metadata>
 <g>
  <path id="path5955" class="st0" d="M94.1,39.6l-2.2,11c-1,4.5-3.7,7.4-9.1,7.4c-6.3,0-8-3.9-6.6-9.4C78.1,40.8,84.5,38.5,94.1,39.6
		 M104,23.9l-6.7,0.4l-2.1,10.8c-2.6-0.1-3.4-0.2-6.4-0.2c-9.4,0-17.6,4-19.8,13.2C67,56.5,71.8,63,82.2,63
		c10.6,0,15.2-5.5,16.9-13.3L104,23.9z">
  </path>
  <path id="path5959" class="st0" d="M31.4,40C21.6,39.2,13.2,40,13,43.3c-0.2,5,16.2,0.6,15.9,9.8C28.4,66.7,5.6,63.5,0,61.8l1-4
		c9.7,1.5,20,1.7,20.2-3.7c0.2-5.7-16.2-0.6-15.8-9.8c0.3-6.9,10.6-10.6,27.4-8.1L31.4,40z">
  </path>
  <path id="path5963" class="st0" d="M57.9,49.2c-1.4,5.6-5.9,9.2-11.2,9.2c-5.6,0-8.1-3.2-6.6-9.2c1.4-5.6,5.9-9.4,11.3-9.4
		C56.6,39.8,59.3,43.6,57.9,49.2 M52.2,35.2c-9.8,0-17.6,5.6-19.5,14c-1.9,8.4,3.3,14.1,13.1,14.1s17.6-5.6,19.5-14.1
		C67.2,40.8,61.9,35.2,52.2,35.2">
  </path>
  <path id="path5967" class="st0" d="M164.9,63.2h-8.5c-5.1-4.8-15-15.9-22.2-27.7h6.2C147.3,44.9,164.9,63.2,164.9,63.2">
  </path>
  <path id="path5971" class="st0" d="M173.8,8.1l3.9-8.1l1.1,8.3l8-2.8l-5.6,7.1l6,4.7l-8,0.6l-0.4,8.6l-4.5-6.4l-6.6,6.1l2.5-8.5
		l-7.8-1.1l7.5-4.3L166.8,5L173.8,8.1z">
  </path>
  <path id="path5975" class="st0" d="M190.3,49.3c-1.4,5.7-6,9.3-11.4,9.3c-5.7,0-8.2-3.3-6.7-9.3c1.4-5.7,6-9.6,11.4-9.6
		C189.1,39.7,191.8,43.6,190.3,49.3 M184.6,35.1c-9.9,0-17.9,5.7-19.8,14.3c-2,8.5,3.4,14.3,13.3,14.3c9.9,0,17.9-5.7,19.8-14.3
		C199.8,40.8,194.5,35.1,184.6,35.1">
  </path>
  <path id="path5979" class="st1" d="M127.8,60.8c16-8.9,29.9-22.6,39.8-34.4C160.5,48.6,143.4,60.6,127.8,60.8">
  </path>
  <path id="path5983" class="st0" d="M121.4,39.3c3.1,0,4.7,1.1,4.7,3.2c0,5.6-11,5.3-15.9,4.3C112,42.6,115.9,39.3,121.4,39.3
		 M132.8,42.2c0-4.1-3.3-7.1-10.7-7.1c-12,0-19.8,7.8-19.8,17.4c0,6.2,5.2,11.4,14.6,11.4c6.5,0,10.9-3.2,10.9-3.2
		c-8.3,0.9-18.5,0-18.5-8.9c0-0.4,0-0.7,0-1.1C120.7,53.2,132.8,50.4,132.8,42.2">
  </path>
 </g>
</svg>